<svg xmlns="http://www.w3.org/2000/svg" xmlns:xlink="http://www.w3.org/1999/xlink" version="1.1" x="0px" y="0px" viewBox="0 0 144.083 180" enable-background="new 0 0 144.083 144" xml:space="preserve"><path d="M80.01,40.108H10.955v3H80.01c7.814,0,17.85,4.214,27.084,9.864h-2.838c-4.137,0-7.5,3.364-7.5,7.5v7.665  c0,4.136,3.363,7.5,7.5,7.5h22.658c1.594,0,3.119-0.511,4.385-1.425c1.088,1.761,1.705,3.327,1.705,4.582v1  c0,7.977-6.49,14.467-14.467,14.467H10.955v3h10.317c0.379,2.328,1.613,4.37,3.378,5.786H10.955v3h115.061v-3h-20.951  c1.766-1.416,3-3.458,3.377-5.786h11.574v-0.075c8.939-0.754,15.988-8.26,15.988-17.392v-1  C136.004,67.872,101.657,40.108,80.01,40.108z M126.915,72.638h-22.658c-2.482,0-4.5-2.019-4.5-4.5v-7.665  c0-2.481,2.018-4.5,4.5-4.5h7.48c7.506,5.128,14.055,10.944,17.836,15.784C128.807,72.319,127.883,72.638,126.915,72.638z   M30.484,102.104c-2.98,0-5.48-2.068-6.157-4.843H36.64C35.963,100.036,33.464,102.104,30.484,102.104z M36.317,103.048  c0.783-0.629,1.461-1.381,2.009-2.227c0.548,0.846,1.226,1.598,2.01,2.227H36.317z M46.17,102.104c-2.98,0-5.48-2.068-6.157-4.843  h12.313C51.648,100.036,49.149,102.104,46.17,102.104z M52.003,103.048c1.765-1.416,2.999-3.458,3.377-5.786h18.955  c0.379,2.328,1.613,4.37,3.379,5.786H52.003z M83.547,102.104c-2.98,0-5.48-2.068-6.158-4.843h12.313  C89.026,100.036,86.526,102.104,83.547,102.104z M89.379,103.048c0.783-0.629,1.461-1.381,2.01-2.227  c0.547,0.846,1.225,1.598,2.01,2.227H89.379z M99.233,102.104c-2.98,0-5.48-2.068-6.158-4.843h12.313  C104.711,100.036,102.211,102.104,99.233,102.104z"/><path d="M16.955,73.306h60.59c4.135,0,7.5-3.364,7.5-7.5v-5.333c0-4.136-3.365-7.5-7.5-7.5h-60.59c-4.136,0-7.5,3.364-7.5,7.5v5.333  C9.455,69.941,12.819,73.306,16.955,73.306z M67,55.973h10.545c2.48,0,4.5,2.019,4.5,4.5v5.333c0,2.481-2.02,4.5-4.5,4.5H67V55.973z   M48.75,55.973H64v14.333H48.75V55.973z M30.5,55.973h15.25v14.333H30.5V55.973z M12.455,60.473c0-2.481,2.019-4.5,4.5-4.5H27.5  v14.333H16.955c-2.481,0-4.5-2.019-4.5-4.5V60.473z"/></svg>
